<svg width="72" height="22" viewBox="0 0 72 22" fill="none" xmlns="http://www.w3.org/2000/svg">
<g opacity="0.15">
<path d="M23.9658 3.39958H24.882C24.9129 3.39956 24.943 3.38977 24.9683 3.37153C24.9935 3.35328 25.0127 3.32748 25.0232 3.29763L26.1167 0.208128C26.1249 0.184805 26.1275 0.159791 26.1243 0.135209C26.1211 0.110626 26.1122 0.087193 26.0984 0.0668904C26.0845 0.0465878 26.0661 0.0300164 26.0447 0.0185698C26.0233 0.00712333 25.9996 0.00113785 25.9755 0.0011273H21.9712C21.9403 0.00114081 21.9102 0.0109342 21.8849 0.0291768C21.8596 0.0474194 21.8405 0.0732212 21.83 0.103077L19.589 6.43038C19.2888 5.67116 18.895 4.95472 18.4174 4.29862C17.4427 2.9443 16.1685 1.84814 14.7001 1.10084C13.2317 0.353535 11.6114 -0.0234294 9.97323 0.0011273C4.28669 0.0011273 0 4.25846 0 9.88753C0 14.7319 3.5447 18.5381 8.07171 18.5381C11.6765 18.5381 14.6625 15.9955 15.2452 12.6681C15.3143 12.2819 15.7139 9.57858 14.5393 7.64764H8.50729C8.47866 7.64708 8.4505 7.6553 8.42643 7.67126C8.40235 7.68721 8.38344 7.71018 8.37211 7.73724L7.03834 10.6723C7.02768 10.6959 7.02303 10.722 7.02482 10.7481C7.02661 10.7741 7.03479 10.7992 7.04859 10.8211C7.06239 10.8431 7.08136 10.861 7.10373 10.8733C7.12611 10.8856 7.15115 10.8919 7.17652 10.8916H12.1962V11.4786C12.1962 13.5826 10.3457 15.2942 8.07171 15.2942C5.31405 15.2942 3.15419 12.9245 3.15419 9.89988C3.15419 6.04418 6.02299 3.2451 9.97323 3.2451C11.1286 3.22067 12.2727 3.48344 13.3082 4.01109C14.3437 4.53875 15.2401 5.31569 15.9211 6.2759C16.2876 6.76713 18.051 9.4272 16.8824 13.8359C16.8013 14.1449 16.7052 14.4538 16.597 14.7782L16.0713 16.3075H16.0954L15.3804 18.3219C15.3722 18.3452 15.3696 18.3702 15.3728 18.3948C15.376 18.4194 15.3849 18.4428 15.3987 18.4631C15.4125 18.4834 15.4309 18.5 15.4523 18.5114C15.4737 18.5229 15.4975 18.5288 15.5216 18.5288H18.5076C18.5383 18.5284 18.5683 18.5184 18.5934 18.5003C18.6186 18.4821 18.6379 18.4565 18.6487 18.4269L19.0212 17.3734H19.0423L19.571 15.8441L19.6791 15.5042L23.9658 3.39958Z" fill="#1E2124"/>
<path d="M45.5595 11.4311H48.2631C48.2976 11.4325 48.3314 11.4211 48.3584 11.399C48.3854 11.3769 48.4038 11.3455 48.4103 11.3107C48.9917 8.61142 49.2798 5.85414 49.2694 3.0895V0.154476C49.2694 0.113506 49.2536 0.0742172 49.2254 0.0452475C49.1973 0.0162778 49.1591 6.04224e-07 49.1192 6.04224e-07H36.2021C36.1623 6.04224e-07 36.1241 0.0162778 36.0959 0.0452475C36.0677 0.0742172 36.0519 0.113506 36.0519 0.154476V2.93502C36.0519 2.97599 36.0677 3.01528 36.0959 3.04425C36.1241 3.07322 36.1623 3.0895 36.2021 3.0895H46.2654C46.2654 7.54599 45.6432 10.2511 45.4352 11.1554L45.4123 11.255C45.4088 11.2769 45.41 11.2993 45.4158 11.3206C45.4216 11.3419 45.4319 11.3617 45.4459 11.3785C45.4599 11.3953 45.4774 11.4087 45.497 11.4178C45.5166 11.4269 45.538 11.4314 45.5595 11.4311Z" fill="#1E2124"/>
<path d="M42.5086 7.72795H39.8051C39.7652 7.72795 39.727 7.74422 39.6989 7.77319C39.6707 7.80216 39.6549 7.84145 39.6549 7.88242V13.9069H33.1963C33.1565 13.9069 33.1183 13.9232 33.0901 13.9522C33.0619 13.9812 33.0461 14.0205 33.0461 14.0614V16.842C33.0461 16.8829 33.0619 16.9222 33.0901 16.9512C33.1183 16.9802 33.1565 16.9964 33.1963 16.9964H51.07C51.0986 16.9966 51.1265 16.9882 51.1505 16.9723C51.1745 16.9564 51.1935 16.9337 51.2052 16.9069L52.4669 14.1263C52.4774 14.1029 52.4821 14.0771 52.4804 14.0513C52.4788 14.0255 52.4709 14.0005 52.4574 13.9787C52.444 13.9569 52.4254 13.9389 52.4034 13.9264C52.3815 13.9138 52.3568 13.9071 52.3317 13.9069H42.6588V7.88242C42.6588 7.84145 42.643 7.80216 42.6148 7.77319C42.5867 7.74422 42.5485 7.72795 42.5086 7.72795Z" fill="#1E2124"/>
<path fill-rule="evenodd" clip-rule="evenodd" d="M60.914 11.725C61.7785 11.1309 62.7949 10.8138 63.8346 10.8138C65.2286 10.8146 66.5653 11.3845 67.551 12.3983C68.5367 13.412 69.0908 14.7867 69.0916 16.2204C69.0916 17.2897 68.7833 18.3351 68.2057 19.2242C67.628 20.1133 66.807 20.8063 65.8464 21.2155C64.8858 21.6247 63.8288 21.7318 62.8091 21.5232C61.7893 21.3145 60.8526 20.7996 60.1174 20.0435C59.3822 19.2874 58.8815 18.324 58.6787 17.2752C58.4758 16.2264 58.5799 15.1393 58.9778 14.1514C59.3757 13.1635 60.0495 12.3191 60.914 11.725ZM62.583 18.147C62.9535 18.4016 63.389 18.5375 63.8346 18.5375C64.4322 18.5375 65.0052 18.2934 65.4278 17.8589C65.8503 17.4243 66.0876 16.835 66.0876 16.2204C66.0876 15.7621 65.9555 15.3141 65.7079 14.9331C65.4604 14.5521 65.1085 14.2551 64.6968 14.0797C64.2851 13.9043 63.8322 13.8584 63.3951 13.9478C62.9581 14.0372 62.5566 14.2579 62.2415 14.582C61.9265 14.906 61.7119 15.3189 61.6249 15.7684C61.538 16.2178 61.5826 16.6837 61.7532 17.1071C61.9237 17.5305 62.2124 17.8924 62.583 18.147Z" fill="#1E2124"/>
<path d="M69.0873 3.39845V0.154476C69.0873 0.113506 69.0714 0.0742172 69.0433 0.0452475C69.0151 0.0162778 68.9769 6.04224e-07 68.9371 6.04224e-07H66.2335C66.1936 6.04224e-07 66.1555 0.0162778 66.1273 0.0452475C66.0991 0.0742172 66.0833 0.113506 66.0833 0.154476V9.73192C66.0833 9.77289 66.0991 9.81218 66.1273 9.84115C66.1555 9.87012 66.1936 9.8864 66.2335 9.8864H68.9371C68.9769 9.8864 69.0151 9.87012 69.0433 9.84115C69.0714 9.81218 69.0873 9.77289 69.0873 9.73192V6.48795H70.5893C70.6178 6.48811 70.6458 6.47972 70.6698 6.46381C70.6938 6.4479 70.7128 6.42516 70.7244 6.39835L71.9861 3.6178C71.9967 3.59435 72.0013 3.56856 71.9997 3.54278C71.998 3.517 71.9901 3.49205 71.9767 3.47023C71.9632 3.4484 71.9447 3.43039 71.9227 3.41785C71.9007 3.40531 71.8761 3.39864 71.8509 3.39845H69.0873Z" fill="#1E2124"/>
<path fill-rule="evenodd" clip-rule="evenodd" d="M63.9821 0.154476V9.73192C63.9821 9.77289 63.9663 9.81218 63.9381 9.84115C63.9099 9.87012 63.8717 9.8864 63.8319 9.8864H54.2192C54.1793 9.8864 54.1411 9.87012 54.113 9.84115C54.0848 9.81218 54.069 9.77289 54.069 9.73192V0.154476C54.069 0.113506 54.0848 0.0742172 54.113 0.0452475C54.1411 0.0162778 54.1793 6.04224e-07 54.2192 6.04224e-07H56.9227C56.9626 6.04224e-07 57.0008 0.0162778 57.0289 0.0452475C57.0571 0.0742172 57.0729 0.113506 57.0729 0.154476V2.16265H60.9781V0.154476C60.9781 0.113506 60.994 0.0742172 61.0221 0.0452475C61.0503 0.0162778 61.0885 6.04224e-07 61.1283 6.04224e-07H63.8319C63.8717 6.04224e-07 63.9099 0.0162778 63.9381 0.0452475C63.9663 0.0742172 63.9821 0.113506 63.9821 0.154476ZM60.9781 4.9432H57.0729V7.10585H60.9781V4.9432Z" fill="#1E2124"/>
<path d="M27.338 6.04224e-07H31.3303C31.3544 1.11542e-05 31.3782 0.00599663 31.3995 0.0174431C31.4209 0.0288897 31.4393 0.0454611 31.4532 0.0657637C31.467 0.0860663 31.4759 0.109499 31.4791 0.134082C31.4823 0.158665 31.4797 0.183679 31.4715 0.207001L30.378 3.2965C30.3672 3.32611 30.3479 3.35167 30.3227 3.36985C30.2975 3.38804 30.2676 3.398 30.2368 3.39845H29.3206L24.0126 18.435C24.0021 18.4649 23.9829 18.4907 23.9576 18.5089C23.9324 18.5272 23.9023 18.537 23.8714 18.537H20.8884C20.8643 18.537 20.8406 18.531 20.8192 18.5195C20.7978 18.5081 20.7794 18.4915 20.7655 18.4712C20.7517 18.4509 20.7428 18.4275 20.7396 18.4029C20.7364 18.3783 20.739 18.3533 20.7472 18.33L27.1968 0.10195C27.2073 0.0720945 27.2265 0.0462927 27.2517 0.0280501C27.277 0.00980747 27.3071 1.41114e-05 27.338 6.04224e-07Z" fill="#1E2124"/>
</g>
</svg>
